<svg width="20" height="19" viewBox="0 0 20 19" fill="none" xmlns="http://www.w3.org/2000/svg">
<g id="Mask 2">
<path id="Mask" fill-rule="evenodd" clip-rule="evenodd" d="M9.99992 0.343428C4.91659 0.343428 0.833252 4.42676 0.833252 9.51009C0.833252 14.5934 4.91659 18.6768 9.99992 18.6768C15.0833 18.6768 19.1666 14.5934 19.1666 9.51009C19.1666 4.42676 15.0833 0.343428 9.99992 0.343428ZM9.99992 17.0101C5.83325 17.0101 2.49992 13.6768 2.49992 9.51009C2.49992 5.34343 5.83325 2.01009 9.99992 2.01009C14.1666 2.01009 17.4999 5.34343 17.4999 9.51009C17.4999 13.6768 14.1666 17.0101 9.99992 17.0101ZM13.3333 10.3434C13.8333 10.3434 14.1666 10.0101 14.1666 9.51009C14.1666 9.01009 13.8333 8.67676 13.3333 8.67676H10.8333V6.17676C10.8333 5.67676 10.4999 5.34343 9.99992 5.34343C9.49992 5.34343 9.16658 5.67676 9.16658 6.17676V8.67676H6.66659C6.16659 8.67676 5.83325 9.01009 5.83325 9.51009C5.83325 10.0101 6.16659 10.3434 6.66659 10.3434H9.16658V12.8434C9.16658 13.3434 9.49992 13.6768 9.99992 13.6768C10.4999 13.6768 10.8333 13.3434 10.8333 12.8434V10.3434H13.3333Z" fill="#0070E4"/>
</g>
</svg>
