<svg width="25" height="19" viewBox="0 0 25 19" fill="none" xmlns="http://www.w3.org/2000/svg">
<path d="M0.575757 5.28612e-06C0.246151 -0.00143411 0.00150273 0.29133 0 0.575763V15.5455C3.16667e-05 15.8469 0.274299 16.1212 0.575757 16.1212H15.3026C15.9881 17.8068 17.6488 19 19.5758 19C22.1128 19 24.1818 16.931 24.1818 14.3939C24.1818 12.467 22.9886 10.8062 21.303 10.1207V0.575763C21.303 0.274305 21.0287 3.4074e-05 20.7273 5.28612e-06H0.575757ZM1.15151 1.15152H20.1515V9.83285C19.9618 9.80895 19.7718 9.78788 19.5758 9.78788C17.0387 9.78788 14.9697 11.8569 14.9697 14.3939C14.9697 14.59 14.9907 14.78 15.0147 14.9697H1.15151V1.15152ZM8.0696 4.60607V11.5152C8.0673 11.9255 8.57267 12.2319 8.91524 12.0279L14.6728 8.57338C15.0223 8.37103 15.0223 7.75019 14.6728 7.54781L8.91524 4.09328C8.51724 3.89147 8.06921 4.21414 8.0696 4.60607ZM9.20312 5.62264L13.2604 8.06061L9.20312 10.4986V5.62264ZM19.5758 10.9394C21.4905 10.9394 23.0303 12.4792 23.0303 14.3939C23.0303 16.3087 21.4905 17.8485 19.5758 17.8485C17.661 17.8485 16.1212 16.3087 16.1212 14.3939C16.1212 12.4792 17.661 10.9394 19.5758 10.9394ZM19.5758 11.803C19.2578 11.803 19 12.0608 19 12.3788V13.8182H17.5606C17.2426 13.8182 16.9848 14.076 16.9848 14.3939C16.9848 14.7119 17.2426 14.9697 17.5606 14.9697H19V16.4091C19 16.7271 19.2578 16.9849 19.5758 16.9849C19.8937 16.9849 20.1515 16.7271 20.1515 16.4091V14.9697H21.5909C21.9089 14.9697 22.1667 14.7119 22.1667 14.3939C22.1667 14.076 21.9089 13.8182 21.5909 13.8182H20.1515V12.3788C20.1515 12.0608 19.8937 11.803 19.5758 11.803Z" fill="#737373"/>
</svg>
