<svg width="19" height="22" viewBox="0 0 19 22" fill="none" xmlns="http://www.w3.org/2000/svg">
<path d="M0.966625 22C0.434325 22 0 21.6423 0 21.204V18.682C0 14.3371 4.27421 11 9.5 11C14.7254 11 19 14.3374 19 18.682V21.204C19 21.6411 18.5641 22 18.0334 22H0.966625ZM0.979739 18.682V21.1932H18.0203V18.682C18.0203 14.7795 14.1889 11.8068 9.5 11.8068C4.81075 11.8068 0.979739 14.7792 0.979739 18.682Z" fill="#0070E4"/>
<path d="M9.37649 0C12.1553 0 14.4141 2.25876 14.4141 5.03756C14.4141 7.81751 12.1568 10.0751 9.37649 10.0751C6.59616 10.0751 4.33893 7.81751 4.33893 5.03756C4.33893 2.25876 6.59768 0 9.37649 0ZM9.37649 0.967005C7.12611 0.967005 5.30593 2.78718 5.30593 5.03756C5.30593 7.2868 7.12763 9.10812 9.37649 9.10812C11.6254 9.10812 13.4471 7.28642 13.4471 5.03756C13.4471 2.78718 11.6269 0.967005 9.37649 0.967005Z" fill="#0070E4"/>
</svg>
