<svg width="20" height="24" viewBox="0 0 20 24" fill="none" xmlns="http://www.w3.org/2000/svg">
<path d="M10.3707 23.5L10.3707 23.4999H10.3636H1.63636C1.01539 23.4999 0.5 22.9846 0.5 22.3636V1.63641C0.5 1.01545 1.01539 0.500055 1.63636 0.500055H10.3636V0.500105L10.3707 0.500005C10.3767 0.499919 10.3827 0.501033 10.3883 0.503282C10.3939 0.505531 10.399 0.508869 10.4033 0.513102C10.4075 0.517335 10.411 0.52238 10.4133 0.527943C10.4156 0.533504 10.4168 0.539474 10.4168 0.545507C10.4168 0.551539 10.4156 0.557509 10.4133 0.56307C10.411 0.568633 10.4075 0.573678 10.4033 0.577911C10.399 0.582144 10.3939 0.585483 10.3883 0.587732C10.3827 0.58998 10.3767 0.591094 10.3707 0.591009L10.3707 0.590959H10.3636H1.63636C1.0486 0.590959 0.590904 1.04865 0.590904 1.63641V22.3636C0.590904 22.9513 1.0486 23.409 1.63636 23.409H10.3636V23.4091L10.3707 23.409C10.3767 23.4089 10.3827 23.41 10.3883 23.4123C10.3939 23.4145 10.399 23.4179 10.4033 23.4221C10.4075 23.4263 10.411 23.4314 10.4133 23.4369C10.4156 23.4425 10.4168 23.4485 10.4168 23.4545C10.4168 23.4605 10.4156 23.4665 10.4133 23.4721C10.411 23.4776 10.4075 23.4827 10.4033 23.4869C10.399 23.4911 10.3939 23.4945 10.3883 23.4967C10.3827 23.499 10.3767 23.5001 10.3707 23.5ZM13.0609 6.02999L13.061 6.0299L13.0526 6.02191C13.0463 6.01589 13.0419 6.00819 13.0398 5.99972C13.0378 5.99125 13.0382 5.98237 13.041 5.97413C13.0439 5.9659 13.049 5.95865 13.0559 5.95326C13.0599 5.95008 13.0644 5.94762 13.0692 5.94597L13.0786 5.94604C13.0847 5.94608 13.0908 5.94737 13.0964 5.94981C13.102 5.95225 13.1071 5.95581 13.1113 5.96026L13.1111 5.96039L13.1208 5.97006L19.1188 11.968C19.1189 11.9681 19.119 11.9683 19.1192 11.9684C19.1273 11.9769 19.1319 11.9882 19.1319 12C19.1319 12.0118 19.1273 12.0231 19.1192 12.0316C19.119 12.0317 19.1189 12.0319 19.1188 12.032L13.1208 18.0299L13.1019 18.0489L13.085 18.0698C13.081 18.0747 13.076 18.0788 13.0703 18.0817C13.0647 18.0846 13.0584 18.0863 13.052 18.0866C13.0457 18.087 13.0393 18.086 13.0333 18.0837C13.0274 18.0814 13.022 18.0779 13.0174 18.0734C13.0129 18.0689 13.0094 18.0635 13.0071 18.0575C13.0048 18.0515 13.0038 18.0452 13.0042 18.0388C13.0045 18.0324 13.0062 18.0262 13.0091 18.0205C13.012 18.0148 13.0161 18.0098 13.0211 18.0058L13.0419 17.989L13.0609 17.97L18.1319 12.899L18.9854 12.0455H17.7783H5.45452H5.44276L5.43101 12.046C5.42497 12.0463 5.41893 12.0454 5.41324 12.0433C5.40755 12.0413 5.40231 12.0381 5.39784 12.0341C5.39337 12.03 5.38975 12.0251 5.38717 12.0196C5.3846 12.0141 5.38313 12.0082 5.38284 12.0022C5.38256 11.9961 5.38347 11.9901 5.38552 11.9844C5.38757 11.9787 5.39072 11.9735 5.39479 11.969C5.39887 11.9645 5.40378 11.9609 5.40925 11.9583C5.41473 11.9558 5.42065 11.9543 5.4267 11.954L5.42682 11.954H5.43109L5.4428 11.9545H5.45452H17.7783H18.9854L18.1319 11.101L13.0609 6.02999Z" fill="#0070E4" stroke="#0070E4"/>
</svg>
