<svg width="24" height="24" viewBox="0 0 24 24" fill="none" xmlns="http://www.w3.org/2000/svg">
<rect width="24" height="24" fill="white"/>
<path d="M10.073 0.571024V0.571428V10.0013C10.073 10.0407 10.041 10.0727 10.0015 10.0727H0.571429C0.531983 10.0727 0.5 10.0407 0.5 10.0013V0.571428C0.5 0.531983 0.531983 0.5 0.571429 0.5H10.0015C10.0415 0.5 10.073 0.532118 10.073 0.571024ZM9.43036 9.9301H9.93036V9.4301V1.14286V0.642857H9.43036H1.14286H0.642857V1.14286V9.4301V9.9301H1.14286H9.43036Z" fill="#737373" stroke="#737373"/>
<path d="M14.0694 9.4301V9.9301H14.5694H22.8569H22.8571H23.3571V9.4301V1.14286V0.642857H22.8571H14.5694H14.0694V1.14286V9.4301ZM13.9977 0.5H23.4286C23.4679 0.5 23.5 0.532128 23.5 0.571428V10.0013C23.5 10.0406 23.4679 10.0727 23.4286 10.0727H13.9977C13.9586 10.0727 13.9265 10.0409 13.9265 10.0013V0.571428C13.9265 0.531837 13.9586 0.5 13.9977 0.5Z" fill="#737373" stroke="#737373"/>
<path d="M10.073 13.9981V13.9985V23.4286C10.073 23.4679 10.0408 23.5 10.0015 23.5H0.571429C0.532128 23.5 0.5 23.4679 0.5 23.4286V13.9985C0.5 13.9594 0.531837 13.9273 0.571429 13.9273H10.0015C10.0416 13.9273 10.073 13.9596 10.073 13.9981ZM9.43036 23.3569H9.93036V22.8569V14.5699V14.0699H9.43036H1.14286H0.642857V14.5699V22.8569V23.3569H1.14286H9.43036Z" fill="#737373" stroke="#737373"/>
<path d="M14.0694 22.8569V23.3569H14.5694H22.8569H22.8571H23.3571V22.8569V14.5699V14.0699H22.8571H14.5694H14.0694V14.5699V22.8569ZM13.9977 13.9273H23.4286C23.468 13.9273 23.5 13.9596 23.5 13.9985V23.4286C23.5 23.4678 23.4677 23.5 23.4286 23.5H13.9977C13.9588 23.5 13.9265 23.468 13.9265 23.4286V13.9985C13.9265 13.9593 13.9585 13.9273 13.9977 13.9273Z" fill="#737373" stroke="#737373"/>
</svg>
