<svg width="24" height="24" viewBox="0 0 24 24" fill="none" xmlns="http://www.w3.org/2000/svg">
<rect width="24" height="24" fill="white"/>
<path d="M10.0015 0H0.571429C0.255841 0 0 0.255841 0 0.571428V10.0013C0 10.3169 0.255841 10.5727 0.571429 10.5727H10.0015C10.3171 10.5727 10.573 10.3169 10.573 10.0013V0.571428C10.5732 0.255841 10.3174 0 10.0015 0ZM9.43036 9.4301H1.14286V1.14286H9.43036V9.4301Z" fill="#0070E4"/>
<path d="M23.4286 0H13.9977C13.6824 0 13.4265 0.255841 13.4265 0.571428V10.0013C13.4265 10.3169 13.6824 10.5727 13.9977 10.5727H23.4286C23.7439 10.5727 24 10.3169 24 10.0013V0.571428C24 0.255841 23.7439 0 23.4286 0ZM22.8569 9.4301H14.5694V1.14286H22.8571V9.4301H22.8569Z" fill="#0070E4"/>
<path d="M10.0015 13.4273H0.571429C0.255841 13.4273 0 13.6831 0 13.9985V23.4286C0 23.7439 0.255841 24 0.571429 24H10.0015C10.3171 24 10.573 23.7439 10.573 23.4286V13.9985C10.5732 13.6831 10.3174 13.4273 10.0015 13.4273ZM9.43036 22.8569H1.14286V14.5699H9.43036V22.8569Z" fill="#0070E4"/>
<path d="M23.4286 13.4273H13.9977C13.6824 13.4273 13.4265 13.6831 13.4265 13.9985V23.4286C13.4265 23.7439 13.6824 24 13.9977 24H23.4286C23.7439 24 24 23.7439 24 23.4286V13.9985C24 13.6831 23.7439 13.4273 23.4286 13.4273ZM22.8569 22.8569H14.5694V14.5699H22.8571V22.8569H22.8569Z" fill="#0070E4"/>
</svg>
