<svg width="22" height="20" viewBox="0 0 22 20" fill="none" xmlns="http://www.w3.org/2000/svg">
<path d="M18.1499 2.35294H3.84993C3.54617 2.35294 3.29993 2.61631 3.29993 2.94118C3.29993 3.26605 3.54617 3.52941 3.84993 3.52941H18.1499C18.4537 3.52941 18.6999 3.26605 18.6999 2.94118C18.6999 2.61631 18.4537 2.35294 18.1499 2.35294Z" fill="#737373"/>
<path d="M14.85 0H7.15004C6.84628 0 6.60004 0.263362 6.60004 0.588235C6.60004 0.913109 6.84628 1.17647 7.15004 1.17647H14.85C15.1538 1.17647 15.4 0.913109 15.4 0.588235C15.4 0.263362 15.1538 0 14.85 0Z" fill="#737373"/>
<path d="M1.1 5.88235V18.8235H20.9V5.88235H1.1ZM1.1 4.70588H20.9C21.5075 4.70588 22 5.2326 22 5.88235V18.8235C22 19.4733 21.5075 20 20.9 20H1.1C0.492487 20 0 19.4733 0 18.8235V5.88235C0 5.2326 0.492487 4.70588 1.1 4.70588Z" fill="#737373"/>
<path d="M13.026 13.1705L9.05432 15.623C8.72121 15.8287 8.29163 15.5891 8.29163 15.1976L8.29163 10.2926C8.29163 9.90115 8.72121 9.66152 9.05432 9.86722L13.026 12.3197C13.3424 12.515 13.3424 12.9752 13.026 13.1705Z" stroke="#737373"/>
</svg>
