<?xml version="1.0" encoding="UTF-8"?>
<svg width="31px" height="31px" viewBox="0 0 31 31" version="1.1" xmlns="http://www.w3.org/2000/svg" xmlns:xlink="http://www.w3.org/1999/xlink">
    <!-- Generator: Sketch 52 (66869) - http://www.bohemiancoding.com/sketch -->
    <title>emoji_happy [#524]</title>
    <desc>Created with Sketch.</desc>
    <g id="Page-2" stroke="none" stroke-width="1" fill="none" fill-rule="evenodd">
        <g id="Desktop-HD-Copy" transform="translate(-1096.000000, -188.000000)" fill="#FFFFFF">
            <g id="Group-32" transform="translate(256.000000, 142.000000)">
                <g id="Group-31" transform="translate(793.000000, 0.000000)">
                    <g id="Group-27" transform="translate(20.000000, 16.000000)">
                        <g id="Group-25">
                            <path d="M49.5907329,48.7298159 C48.1477329,56.9453159 36.3217329,56.7908159 34.8787329,48.5738159 C34.7212329,47.6768159 35.4577329,47.1728159 36.3697329,47.1728159 L48.0997329,47.1728159 C49.0117329,47.1728159 49.7482329,47.8313159 49.5907329,48.7298159 L49.5907329,48.7298159 Z M49.7347329,39.6728159 C50.5627329,39.6728159 51.2347329,40.3448159 51.2347329,41.1728159 C51.2347329,42.0008159 50.5627329,42.6728159 49.7347329,42.6728159 L46.7347329,42.6728159 C45.9067329,42.6728159 45.2347329,42.0008159 45.2347329,41.1728159 C45.2347329,40.3448159 45.9067329,39.6728159 46.7347329,39.6728159 L49.7347329,39.6728159 Z M37.7347329,42.6728159 L34.7347329,42.6728159 C33.9067329,42.6728159 33.2347329,42.0008159 33.2347329,41.1728159 C33.2347329,40.3448159 33.9067329,39.6728159 34.7347329,39.6728159 L37.7347329,39.6728159 C38.5627329,39.6728159 39.2347329,40.3448159 39.2347329,41.1728159 C39.2347329,42.0008159 38.5627329,42.6728159 37.7347329,42.6728159 L37.7347329,42.6728159 Z M54.2347329,55.5638159 C54.2347329,56.3933159 53.5627329,57.6728159 52.7347329,57.6728159 L31.7347329,57.6728159 C30.9067329,57.6728159 30.2347329,56.3933159 30.2347329,55.5638159 L30.2347329,45.0638159 C30.2347329,38.4473159 35.6182329,33.6728159 42.2347329,33.6728159 C48.8512329,33.6728159 54.2347329,38.4473159 54.2347329,45.0638159 L54.2347329,55.5638159 Z M54.2347329,36.0908159 C51.0817329,31.8818159 47.4142329,30.6728159 42.2347329,30.6728159 C37.0522329,30.6728159 33.3862329,31.8848159 30.2347329,36.0908159 C28.3597329,38.5958159 27.2347329,41.6948159 27.2347329,45.0638159 L27.2347329,57.0638159 C27.2347329,58.7213159 28.5787329,60.6728159 30.2347329,60.6728159 L54.2347329,60.6728159 C55.8922329,60.6728159 57.2347329,58.7213159 57.2347329,57.0638159 L57.2347329,45.0638159 C57.2347329,41.6948159 56.1097329,38.5958159 54.2347329,36.0908159 L54.2347329,36.0908159 Z" id="emoji_happy-[#524]"></path>
                        </g>
                    </g>
                </g>
            </g>
        </g>
    </g>
</svg>