<?xml version="1.0" encoding="UTF-8"?>
<svg width="46px" height="31px" viewBox="0 0 46 31" version="1.1" xmlns="http://www.w3.org/2000/svg" xmlns:xlink="http://www.w3.org/1999/xlink">
    <!-- Generator: Sketch 52 (66869) - http://www.bohemiancoding.com/sketch -->
    <title>Video</title>
    <desc>Created with Sketch.</desc>
    <g id="Page-2" stroke="none" stroke-width="1" fill="none" fill-rule="evenodd">
        <g id="Desktop-HD-Copy" transform="translate(-295.000000, -188.000000)" fill="#FFFFFF" fill-rule="nonzero">
            <g id="Group-32" transform="translate(256.000000, 142.000000)">
                <g id="Group-29">
                    <g id="Group-28" transform="translate(20.000000, 16.000000)">
                        <g id="Group-23">
                            <g id="Video" transform="translate(19.000000, 30.672816)">
                                <path d="M45.29,6.33 C44.9921741,5.58562502 44.4087855,4.9914329 43.67,4.68 C42.9396159,4.37994595 42.1203841,4.37994595 41.39,4.68 L33.5,7.68 L33.5,4.5 C33.5,2.01471863 31.4852814,0 29,0 L5,0 C2.51471863,0 0.5,2.01471863 0.5,4.5 L0.5,25.5 C0.5,27.9852814 2.51471863,30 5,30 L29,30 C31.4852814,30 33.5,27.9852814 33.5,25.5 L33.5,22.2 L41.36,25.2 C41.722734,25.3434473 42.1099613,25.4147786 42.5,25.41 C44.1568542,25.41 45.5,24.0668542 45.5,22.41 L45.5,7.41 C45.4932817,7.04053302 45.4222184,6.67506418 45.29,6.33 Z M30.5,25.5 C30.5,26.3284271 29.8284271,27 29,27 L5,27 C4.17157288,27 3.5,26.3284271 3.5,25.5 L3.5,4.5 C3.5,3.67157288 4.17157288,3 5,3 L29,3 C29.8284271,3 30.5,3.67157288 30.5,4.5 L30.5,25.5 Z M42.5,22.5 L33.5,18.9 L33.5,11.04 L42.5,7.44 L42.5,22.5 Z" id="Shape"></path>
                            </g>
                        </g>
                    </g>
                </g>
            </g>
        </g>
    </g>
</svg>